<?xml version="1.0" encoding="utf-8"?>
<!-- Generator: Adobe Illustrator 23.0.0, SVG Export Plug-In . SVG Version: 6.00 Build 0)  -->
<svg version="1.1" id="레이어_1" xmlns="http://www.w3.org/2000/svg" xmlns:xlink="http://www.w3.org/1999/xlink" x="0px"
	 y="0px" viewBox="0 0 1024 1024" style="enable-background:new 0 0 1024 1024;" xml:space="preserve">
<style type="text/css">
	.st0{fill:url(#SVGID_1_);}
	.st1{fill:#FFFFFF;}
</style>
<linearGradient id="SVGID_1_" gradientUnits="userSpaceOnUse" x1="82.0123" y1="111.0655" x2="945.7238" y2="916.4182">
	<stop  offset="0" style="stop-color:#5EF3E1"/>
	<stop  offset="1" style="stop-color:#7668FE"/>
</linearGradient>
<path class="st0" d="M896,1024H128C57.6,1024,0,966.4,0,896V128C0,57.6,57.6,0,128,0h768c70.4,0,128,57.6,128,128v768
	C1024,966.4,966.4,1024,896,1024z"/>
<g>
	<path class="st1" d="M555.62,602.31c48.19,0,87.25-39.06,87.25-87.25c0-48.19-39.06-87.25-87.25-87.25s-87.25,39.06-87.25,87.25
		C468.37,563.25,507.44,602.31,555.62,602.31z M555.62,482.34c18.07,0,32.72,14.65,32.72,32.72c0,18.07-14.65,32.72-32.72,32.72
		c-18.07,0-32.72-14.65-32.72-32.72C522.91,496.99,537.55,482.34,555.62,482.34z"/>
	<path class="st1" d="M361.49,471.14h61.07c25.19,0,45.81-19.63,45.81-43.63c0-23.99-20.61-43.63-45.81-43.63h-61.07
		c-25.19,0-45.81,19.63-45.81,43.63C315.69,451.51,336.3,471.14,361.49,471.14z"/>
	<path class="st1" d="M296.06,646.11h61.07c25.19,0,45.81-19.63,45.81-43.63c0-23.99-20.61-43.63-45.81-43.63h-61.07
		c-25.19,0-45.81,19.63-45.81,43.63C250.25,626.49,270.86,646.11,296.06,646.11z"/>
	<path class="st1" d="M514.18,206.63c-25.3,0-45.81,20.56-45.81,45.93c0,25.37,20.51,45.93,45.81,45.93c0.03,0,0.05,0,0.08,0
		l41.36,0c118.06,0,213.76,94.32,213.76,212.69c0,118.38-95.7,214.34-213.76,214.34H208.81v0c0,0,0,0-0.01,0
		c-25.3,0-45.81,20.56-45.81,45.93c0,25.37,20.51,45.93,45.81,45.93c0.03,0,0.06,0,0.08,0h346.73
		c168.65,0,305.38-137.09,305.38-306.2c0-169.11-136.72-304.55-305.38-304.55H514.18L514.18,206.63"/>
</g>
</svg>
